inDegrees=no
num_controls=7
num_derivatives=13
num_iterations=142
num_multipliers=7
num_parameters=0
num_slacks=7
num_states=26
objective=0.469798
objective_accelerations=0.062509
objective_balance=0.002069
objective_effort=0.020010
objective_height=0.375614
objective_ligament=0.009595
solver_duration=1909.295908
status=Solve_Succeeded
success=true
DataType=double
version=3
OpenSimVersion=4.5
endheader
time	/jointset/ground_pelvis/pelvis_tilt/value	/jointset/ground_pelvis/pelvis_tx/value	/jointset/ground_pelvis/pelvis_ty/value	/jointset/hip_l/hip_flexion_l/value	/jointset/hip_l/hip_adduction_l/value	/jointset/hip_l/hip_rotation_l/value	/jointset/back/lumbar_extension/value	/jointset/patellofemoral_l/patellar_flexion_l/value	/jointset/knee_l/knee_flexion_l/value	/jointset/knee_l/knee_adduction_l/value	/jointset/knee_l/knee_rotation_l/value	/jointset/ankle_l/ankle_angle_l/value	/jointset/subtalar_l/subtalar_angle_l/value	/jointset/ground_pelvis/pelvis_tilt/speed	/jointset/ground_pelvis/pelvis_tx/speed	/jointset/ground_pelvis/pelvis_ty/speed	/jointset/hip_l/hip_flexion_l/speed	/jointset/hip_l/hip_adduction_l/speed	/jointset/hip_l/hip_rotation_l/speed	/jointset/back/lumbar_extension/speed	/jointset/patellofemoral_l/patellar_flexion_l/speed	/jointset/knee_l/knee_flexion_l/speed	/jointset/knee_l/knee_adduction_l/speed	/jointset/knee_l/knee_rotation_l/speed	/jointset/ankle_l/ankle_angle_l/speed	/jointset/subtalar_l/subtalar_angle_l/speed	/forceset/tau_hip_flexion_l	/forceset/tau_hip_adduction_l	/forceset/tau_hip_rotation_l	/forceset/tau_knee_flexion_l	/forceset/tau_ankle_angle_l	/forceset/tau_subtalar_angle_l	/forceset/tau_lumbar_extension	lambda_cid13_p0	lambda_cid13_p1	lambda_cid13_p2	lambda_cid13_p3	lambda_cid13_p4	lambda_cid13_p5	lambda_cid14_p0	/jointset/ground_pelvis/pelvis_tilt/accel	/jointset/ground_pelvis/pelvis_tx/accel	/jointset/ground_pelvis/pelvis_ty/accel	/jointset/hip_l/hip_flexion_l/accel	/jointset/hip_l/hip_adduction_l/accel	/jointset/hip_l/hip_rotation_l/accel	/jointset/back/lumbar_extension/accel	/jointset/patellofemoral_l/patellar_flexion_l/accel	/jointset/knee_l/knee_flexion_l/accel	/jointset/knee_l/knee_adduction_l/accel	/jointset/knee_l/knee_rotation_l/accel	/jointset/ankle_l/ankle_angle_l/accel	/jointset/subtalar_l/subtalar_angle_l/accel	gamma_cid13_p0	gamma_cid13_p1	gamma_cid13_p2	gamma_cid13_p3	gamma_cid13_p4	gamma_cid13_p5	gamma_cid14_p0
1	-0.8272907118953133	-0.159853278384086	0.6145987203957064	2.015399412531035	-0.3360013858322482	0.04481666001515638	-0.4363309097930007	1.059658898159512	1.059658898159637	-0.004665128735764693	-0.1745308675443951	0.00104265164153073	0.08473431990584199	-0.1596434761293502	0.01185789436887803	0.03331868944615423	0.00623347949441987	-0.006071691946998846	-0.05645600786462258	-1.00344765696803e-05	-0.1658561810063447	-0.1658561810063222	-0.01056851953300757	-2.817462039764902e-05	-0.02439346996259258	-0.01274755260956456	-0.3779345298643634	-0.004271333897765361	-0.005618377046872	-0.13409583984783	0.1184995636776787	0.01995483106598749	0.2800266073118056	7.929982784746956	-6.706020231658091	-3.037074080818797	-8.37967247042544	-545.3873190678672	-69.04117192431559	-2.130721085909966	3.156515835093511	0.7701856224867234	1.787955600798617	-7.635091445686975	-0.231387346027765	-1.278990334666518	-0.03248848866278576	-3.889332601527524	-3.889332601527733	-0.4165233115746061	-0.02273957446335641	0.3245006295915122	-0.1234936535078861	-1.086183313643963e-08	-5.207192841722346e-08	6.212860959200181e-09	1.527204737571462e-09	-9.945520042758201e-09	3.029120521057604e-08	-1.374859030777914e-08
1.01	-0.8287303913965067	-0.1596962795255963	0.6150210383558868	2.015081440873622	-0.3360728992062658	0.04418876662766991	-0.4363312386465661	1.057805919892141	1.05780591989224	-0.004791006310221604	-0.1745311010449251	0.000814732064953385	0.08460138968883467	-0.1282841527185766	0.01954558059408652	0.05113003485097683	-0.0698065350789642	-0.008223759117134251	-0.06911833309169874	-4.535867206152748e-05	-0.2047291793793902	-0.2047291793793961	-0.01460540201910569	-1.890268905927945e-05	-0.02120929954927337	-0.01383678758989717	-0.378196074518142	-0.004013632690686606	-0.005622666142304679	-0.133202075350862	0.1178938690187896	0.02005905371587256	0.2801357720019221	7.76288971811308	-6.750832426386149	-2.997027600476073	-8.435179014842488	-545.1459080969422	-68.9637497402363	-2.169890387249838	3.126879319415448	0.7686147563631388	1.775491149778731	-7.58526734583159	-0.2060252366303072	-1.259217715381658	0.01250224968669937	-3.884736159486821	-3.884736159490942	-0.3970461664765315	0.01270864886268011	0.3125433148938279	-0.1013735145754208	-1.053339575260473e-08	-6.150820321417381e-08	4.383280474376426e-09	-4.221636846981111e-09	-1.34630094639121e-08	4.098968531556426e-08	-1.663294875915655e-08
1.02	-0.829856229918522	-0.1594622928780895	0.6156210231980065	2.014003706893942	-0.3361657150188093	0.04343437716818047	-0.4363316094151498	1.05556452110018	1.055564521100252	-0.004957207799409653	-0.174531252211755	0.0006180878060477914	0.08445762010316814	-0.09687528029395688	0.02725545217229847	0.06885206583399078	-0.1457189849590475	-0.01033217965222437	-0.08175522226491472	-1.841748038990982e-05	-0.2435402859241855	-0.2435402859242185	-0.01863330247916878	-1.170788051143758e-05	-0.01813840642828573	-0.01491542634140882	-0.3784576191719178	-0.00375593148361149	-0.005626955237735855	-0.1323083108538939	0.1172881743598995	0.02016327636575358	0.2802449366920423	7.59199138185856	-6.796686518308471	-2.954863585077205	-8.5106077676369	-544.9918307025819	-68.88524070139182	-2.217783264194451	3.166425637862738	0.7746226930874227	1.770092716436892	-7.609578507026829	-0.222658019018707	-1.273903123894474	-0.02003541123008395	-3.876954235877468	-3.876954235877454	-0.414726906367602	-0.02315499902145811	0.3018451711252057	-0.1213744077436935	-9.996393923832679e-09	-7.007503854041678e-08	3.360578545938279e-09	-1.00510627902486e-08	-1.679206234507932e-08	5.108087687827692e-08	-1.936694791320979e-08
1.03	-0.8306676527192292	-0.1591510763507038	0.6163977294071737	2.012167501318807	-0.3362793966201598	0.04255378096590074	-0.4363315752732089	1.052935372460944	1.052935372460679	-0.005163688708966632	-0.1745313627350004	0.0004515416607636835	0.08430310299258369	-0.06539455329212369	0.03499343208009395	0.08646906618126346	-0.2214983129803103	-0.01239528906393947	-0.09435534130978056	1.942910626913365e-05	-0.2822743406413769	-0.2822743406414371	-0.02266438251129113	-1.021279470803249e-05	-0.0151938861527394	-0.01598596832862898	-0.3783271117625933	-0.003437229844429492	-0.005621016197495808	-0.1314029092345558	0.1166322575944071	0.02030478951096272	0.2801183977634097	7.423161995094165	-6.860534127589723	-2.90819093707185	-8.577356798208529	-544.5410672727764	-68.82456018718568	-2.27467978668001	3.141102084655599	0.7742192443264859	1.754483177145747	-7.558540939412138	-0.1967986698136681	-1.25178388353016	0.01482217929210094	-3.869361460950103	-3.869361460954206	-0.3975433441478817	0.01183499780536893	0.2872917145029433	-0.09957760835207516	-9.457263886438819e-09	-7.863300203532599e-08	2.346110072157133e-09	-1.588131102289073e-08	-2.011919240440993e-08	6.116587161912962e-08	-2.209941278871891e-08
1.04	-0.8311638270792544	-0.1587623133033	0.6173500015164683	2.009574216265513	-0.3364134415691405	0.04154744005542139	-0.4363313371682666	1.049919337200274	1.049919337199672	-0.005410529377347746	-0.1745314516603027	0.0003137479699820945	0.08413794375929887	-0.03382559215781151	0.04276475617591826	0.1039652458594728	-0.2971348805910197	-0.01440484917828441	-0.1069041639045474	2.237512005627002e-05	-0.3209176102109731	-0.3209176102110607	-0.026705254243947	-7.388291939913017e-06	-0.01238791552784885	-0.01704385088148523	-0.3781966043532697	-0.003118528205251559	-0.005615077157254473	-0.1304975076152166	0.1159763408289144	0.02044630265616766	0.2799918588347762	7.250429744206165	-6.925481204633832	-2.859306305746241	-8.663217624206959	-544.1785378851298	-68.76366400458808	-2.340871211816578	3.184072464358536	0.7812915306931927	1.74592858262423	-7.581026424916192	-0.2119481595446762	-1.263643833874675	-0.02701552580446152	-3.85879720635843	-3.858797206358449	-0.4166852464743071	-0.02288911562851227	0.2741352409940562	-0.1188425208709117	-8.863658657180544e-09	-8.604535426027583e-08	1.264553111698664e-09	-2.105898488286455e-08	-2.286094250327087e-08	6.940601231826089e-08	-2.436259454775291e-08
1.05	-0.831343969100984	-0.1582956621879194	0.6184765504199153	2.006225503196228	-0.336567310600359	0.04041588326304478	-0.4363312296041764	1.046517393054023	1.04651739305332	-0.005697844422634387	-0.1745315366933574	0.0002032665603107095	0.08396225591127737	-0.002200144078562552	0.05057158363845877	0.1213163003043708	-0.3725598708479721	-0.01635694296387619	-0.1193951101473193	-3.024108768303463e-06	-0.3594495947224116	-0.359449594722411	-0.03075858792531539	-7.869835444426684e-06	-0.00973648049404527	-0.01809002526349917	-0.3776231482523805	-0.002754521078375201	-0.005599015045546304	-0.1295911467212162	0.1152981288267032	0.02062604301581271	0.2795993316754474	7.091471220490062	-7.009904323967032	-2.806788891637006	-8.752278135711565	-543.4747333762328	-68.72122231024733	-2.416729418048058	3.152177100006138	0.781290569434017	1.725453552202897	-7.516060595982098	-0.1850238771880753	-1.240030235171437	0.009373607518542226	-3.847150081102384	-3.84715008108916	-0.3998058701656401	0.01164098341624901	0.2564259957223824	-0.09693592731941918	-8.268351078176505e-09	-9.342190613303945e-08	1.808996360315292e-10	-2.621626579369249e-08	-2.558439947836714e-08	7.758850132858839e-08	-2.661111120939707e-08
1.06	-0.8312077774178603	-0.1577507603548335	0.6197757618031674	2.002123975170394	-0.3367403373472577	0.03915977496510097	-0.4363314408865798	1.042730778861146	1.042730778860343	-0.006025722492973687	-0.1745315728104219	0.0001184551732077914	0.08377622011334518	0.02944114881260804	0.058414899716974	0.1384977418204859	-0.4476978719008192	-0.01823639231433367	-0.1318144650178109	-4.139417999293327e-05	-0.3978516195364827	-0.397851619536394	-0.03481785925458544	2.394906157422265e-06	-0.007253911014286414	-0.01911344086362462	-0.377049692151497	-0.002390513951502279	-0.005582952933832371	-0.1286847858272128	0.1146199168244934	0.0208057833754546	0.2792068045161111	6.928503535185852	-7.095516637103818	-2.751921454564573	-8.859468614781372	-542.8600270847098	-68.67976163129106	-2.502627053547893	3.187241426742861	0.7885892538881397	1.712005996867655	-7.523628584095158	-0.1974192725178186	-1.249325559418601	-0.02960969428445417	-3.832805266884976	-3.832805266884976	-0.4178727760546381	-0.02073985860723866	0.2403621301851153	-0.1142907644932132	-5.842048757888633e-09	-1.058462402528949e-07	-2.377749327263798e-08	-3.370031365658893e-08	-2.732725373289556e-08	7.555165712696963e-08	-2.643623114141212e-08
1.07	-0.8307550858127726	-0.1571272154984651	0.6212458778089418	1.997272591036616	-0.3369318587341167	0.03778006990441966	-0.4363319883882507	1.038560881034523	1.038560881033971	-0.0063945177054291	-0.1745314243987818	5.759929080388407e-05	0.0835799882235497	0.06109740795942011	0.06630255121885249	0.155490983083092	-0.5225196466392823	-0.02005616187509474	-0.14411571792559	-5.57357909430538e-05	-0.4360987224665049	-0.4360987224664165	-0.03894238174128245	2.421187868246262e-05	-0.004946692274720935	-0.02012992292505845	-0.3762358472437224	-0.001961554162683045	-0.005558770625265286	-0.1276831688392721	0.1138165164273619	0.02102549783311707	0.2787064035300115	6.740673602475719	-7.198824868603199	-2.688877838609793	-8.958065349491973	-542.016730464832	-68.64896904019264	-2.599012685649733	3.15484887825942	0.7901166784591159	1.687805925764841	-7.452560933624945	-0.1724727028903453	-1.21892395945373	0.01450916015588551	-3.816274085628136	-3.816274085628177	-0.4099523188727875	0.01317898897909347	0.2214822025857009	-0.09484978574862871	-3.318353100298417e-09	-1.185390734284467e-07	-4.895262764050988e-08	-4.13081257190635e-08	-2.901794826824484e-08	7.297123137152387e-08	-2.61324469920639e-08
1.08	-0.8299858254722943	-0.1564245414110537	0.6228848907743039	1.991674767352472	-0.3371412211975903	0.03627767255406134	-0.4363323081951029	1.034009389922687	1.034009389922385	-0.006804600209530887	-0.174531150514658	1.893168714640759e-05	0.08337368694138385	0.09275489589059324	0.07424074592558227	0.1722771337380103	-0.5969857819738692	-0.02180460763725971	-0.1563529229532159	4.144784353794945e-06	-0.4741702765792192	-0.47417027657913	-0.04307531758380169	2.748940307586715e-05	-0.002816255265417733	-0.02112731933769875	-0.3754220023359491	-0.001532594373864581	-0.00553458831670184	-0.1266815518513302	0.113013116030231	0.02124521229077898	0.2782060025439103	6.548741783030999	-7.303465857194062	-2.623278754946622	-9.074582916059946	-541.2635133452188	-68.62252941256816	-2.706350376618526	3.187487183615073	0.7986978948584068	1.670587875330111	-7.452500703319944	-0.1831545127985997	-1.236515983387957	-0.01476525703501643	-3.797695503423418	-3.797695503423179	-0.4195554472190827	-0.02444774823356755	0.2050057841326663	-0.1104736347345053	6.372877939227083e-10	-1.266929387387389e-07	-7.754998984288281e-08	-4.918825347365676e-08	-2.740021602744497e-08	6.367064101897048e-08	-2.3930653626501e-08
